<svg width="16" height="16" viewBox="0 0 16 16" fill="none" xmlns="http://www.w3.org/2000/svg">
<path d="M6.66671 12C7.85003 11.9998 8.99924 11.6036 9.93137 10.8747L12.862 13.8053L13.8047 12.8627L10.874 9.932C11.6034 8.99977 11.9998 7.85029 12 6.66667C12 3.726 9.60737 1.33333 6.66671 1.33333C3.72604 1.33333 1.33337 3.726 1.33337 6.66667C1.33337 9.60733 3.72604 12 6.66671 12ZM6.66671 2.66667C8.87271 2.66667 10.6667 4.46067 10.6667 6.66667C10.6667 8.87267 8.87271 10.6667 6.66671 10.6667C4.46071 10.6667 2.66671 8.87267 2.66671 6.66667C2.66671 4.46067 4.46071 2.66667 6.66671 2.66667Z" fill="black"/>
</svg>
